<svg xmlns="http://www.w3.org/2000/svg" width="940" height="284" viewBox="0 0 940 284">
    <defs>
        <linearGradient id="a" x1="4.656%" x2="90.329%" y1="48.468%" y2="48.727%">
            <stop offset="0%" stop-color="#2F9C5C"/>
            <stop offset="100%" stop-color="#0065F9"/>
        </linearGradient>
    </defs>
    <path fill="url(#a)" fill-rule="evenodd" d="M630.612 17.212c2.19 2.209 4.937 5.86 6.147 11.065-.554-4.59-2.26-8.804-6.147-11.065zM374.925 23.36c5.175 2.468 14.845 4.137 20.898 4.918-.03-.235-.056-.457-.077-.665-3.368-.52-11.87-1.936-20.82-4.253zm399.334-8.012c.256 0 .506.07.728.21 9.61 6.034 14.41 14.418 16.659 22.556-.486-5.15-1.603-9.075-2.803-11.965-2.921-7.019-6.932-9.566-6.973-9.59a1.432 1.432 0 0 1-.673-1.267c0-.078-.326-10.462-29.013-12.657-29.791-2.285-52.131 18.421-54.814 25.02-.737 1.812-.242 2.786.194 3.361 1.685 2.224 6.94 3.21 10.594 2.702.898-.125 1.751.096 2.502.64 2.935-2.097 6.518-2.913 8.966-3.005.043-.002.086-.002.129 0 22.84 1.29 53.532-15.66 53.837-15.831a1.36 1.36 0 0 1 .667-.174zm-149.793 8.176c.289.145.523.386.651.69 1.673 3.939 4.899 9.906 6.836 10.84 1.396.673 2.606 1.768 3.576 3.06-.069-1.036-.14-2.083-.214-3.11a1.354 1.354 0 0 1 .007-.25c1.167-9.649-4.273-15.334-7.01-17.54-.894 2.305-2.209 4.402-3.846 6.31zM610.059 4.918c-4.084 0-8.835.86-14.301 3.078-19.25 7.812-21.67 21.768-20.046 32.575 7.63-.82 46.227-5.935 51.536-25.817.116-.433.432-.787.85-.954a1.44 1.44 0 0 1 1.285.11c-2.162-2.737-8.312-8.992-19.324-8.992zm-22.47 36.873c8.107.138 25.937-1.074 33.19-13.514-8.814 7.613-22.936 11.552-33.19 13.514zM362.575 4.918c-13.948 0-20.39 6.523-20.468 6.603-.16.169-.367.298-.592.371-5.671 1.83-9.354 10.84-9.61 23.517-.082 4 1.007 8.997 2.44 13.768.043-1.554.29-3.034.766-4.326a8.499 8.499 0 0 1 .861-1.73c.35-3.556 1.086-7.3 2.212-11.203 3.186-11.048 8.273-19.394 8.488-19.743.25-.407.7-.66 1.188-.667a1.37 1.37 0 0 1 1.211.628c4.523 6.826 36.927 11.88 49.03 13.25.76.086 1.31.742 1.241 1.48-.028.297.074.991.248 1.9l.216.017c4.67-.464 5.655-3.786 5.85-5.497-7.737-1.743-10.919-4.847-14-7.853-3.572-3.483-7.265-7.086-18.683-9.412-3.842-.783-7.305-1.103-10.398-1.103zm-12.715 44.658l3.734.83c.829-7.66 8.09-11.197 12.451-12.124 4.189-4.833 3.817-14.192 3.813-14.287-.012-.25.042-.492.15-.706-9.048-2.146-17.707-4.99-21.659-8.536-2.145 4.058-7.321 14.763-9.073 26.541a6 6 0 0 1 1.651-.28c2.376-.077 4.356.626 5.904 2.086 2.11 1.993 2.803 4.894 3.029 6.476zm-181.24 3.168c.722.726 3.116 3.234 4.875 6.269.023-.152.043-.303.059-.455.359-3.437-1.459-5.635-1.477-5.656a1.36 1.36 0 0 1-.318-1.113c2.134-13.062 9.283-23.123 21.248-29.907 17.632-9.995 40.225-9.337 43.737-8.006 1.09.413 2.069 1.122 2.961 2.035-1.75-2.793-7.95-7.389-15.65-8.1-5.63-.52-34.28-2.49-45.458 9.849-9.9 10.93-13.786 28.618-9.978 35.084zm178.008 10.341c.076 0 .154.006.23.02.56.09 1.01.502 1.138 1.044.03.122 3.01 12.24 11.615 16.036 12.378 5.46 22.255 8.008 26.42 6.817 4.258-1.218 6.713-14.434 6.713-18.41 0-1.887.852-4.458 1.678-6.944.67-2.022 1.365-4.112 1.365-5.217 0-2.895 2.05-6.89 3.408-9.534l.251-.49c.398-1.206-1.16-7.91-2.091-11.915a331.72 331.72 0 0 1-.856-3.749c-5.616-.533-18.612-2.03-24.855-4.925-.184 3.489-1.056 9.817-4.804 13.667a1.415 1.415 0 0 1-.772.404c-.437.077-10.748 2-10.545 10.774.01.424-.179.827-.512 1.096a1.426 1.426 0 0 1-1.196.28l-6.32-1.377a1.384 1.384 0 0 1-1.1-1.306c-.024-.7-.39-6.878-6.041-6.693-.376.012-1.294.04-2.136.98-.472 5.524-.023 11.162 2.048 16.324.162.17.329.33.499.475 3.243 2.782 4.616 2.984 4.936 2.986.255-.22.584-.343.927-.343zM178.952 87.29a30.985 30.985 0 0 0-3.167 1.23c2.079-.208 3.695-.274 4.917-.191a155.37 155.37 0 0 0-1.75-1.039zm160.325-8.213c1.292 2.727 6.748 8.735 12.292 14.36-4.487-11.607-8.14-23.458-8.727-25.386-.367-.54-.72-1.095-1.051-1.661 0 .04-.002.079-.005.117-.328 4.24-2.011 10.72-2.51 12.57zM173.327 91.48c.878.654 1.793 1.307 2.729 1.957 1.685-.97 2.94-1.824 3.417-2.407-.662-.09-2.3-.128-6.147.45zm412.477-20.795c.587 0 1.136.371 1.328.955 4.535 13.736 15.079 19.805 19.048 22.09 3.71 2.133 9.421.284 15.962-2.162 4.674-1.747 10.374-12.872 12.174-17.01.239-.547.8-.882 1.382-.834.135.01.265.04.387.088a51.045 51.045 0 0 1-.889-2.453 1.408 1.408 0 0 1-.043-.718l.925-4.675c.135-.68.74-1.156 1.431-1.125.742.036 1.452-.899 1.806-1.461 2.274-3.606 3.002-11.408 1.76-13.777-.443-.84-.74-.964-.743-.965-.177.052-.703.663-.955 1.17a1.386 1.386 0 0 1-1.673.707 1.404 1.404 0 0 1-.94-1.565c.036-.264.027-1.09-.015-2.291a1.408 1.408 0 0 1-.695-1.317c.192-2.694-1.8-7.068-4.56-8.461-2.563-1.294-5.278-6.43-6.85-9.833-4.192 7.5-12.088 12.512-23.035 14.573-8.653 1.629-16.229.896-17.24.785-2.183.075-2.66.968-2.819 1.264-1.324 2.478 1.358 8.54 3.36 11.78a1.414 1.414 0 0 1-.097 1.622c-.371.464-.992.641-1.55.44l-3.24-1.168a1.392 1.392 0 0 1-.764-.67l-2.094-4.035c-.885.216-1.24.645-1.436.981-1.738 2.985 2.211 11.29 3.698 14.417 2.174 4.572 5.634 3.799 6.018 3.695.12-.032.24-.047.36-.047zm211.988 22.752c.42.457.835.867 1.23 1.23l-.43-1.087a18.18 18.18 0 0 0-.8-.143zm-626.46-1.23c-2.035 2.372-3.831 5.245-5.381 8.607a107.038 107.038 0 0 0 8.604-5.438 97.397 97.397 0 0 1-3.224-3.168zm-5.381 2.46c-3.304 2.803-6.162 6.7-8.605 11.065 1.174-.999 2.24-1.686 3.133-2.05.5-.202 1.084-.474 1.73-.803 1.103-3.024 2.351-5.763 3.742-8.212zm25.179-15.514c9.164 6.44 16.936 17.302 22.429 26.579 1.46-8.546 4.952-16.255 12.52-18.313.187-.05.383-.06.573-.028 4.787.8 13.24 1.392 15.547-.425 3.013-2.372 2.73-7.506 2.478-12.034-.192-3.458-.343-6.19.877-7.85 1.374-1.868 3.152-1.989 4.45-2.076 1.423-.097 2.343-.159 3.224-1.956-1.96-2.488-7.863-10.424-7.489-15.391.11-1.444.37-2.775.622-4.062.685-3.51 1.227-6.283-1.308-10.017-.965-1.422-1.9-3.595-2.892-5.895-.957-2.222-2.035-4.725-3.254-6.785-.299.039-.625.06-.981.06-3.734 0-6.889 6.185-9.424 11.155-2.33 4.568-4.17 8.175-6.742 8.831-1.759.45-3.735 3.618-5.478 6.414-2.366 3.795-4.6 7.38-7.7 7.643-2.777.235-4.405-1.841-5.845-3.673-1.745-2.22-3.393-4.32-7.095-3.94-1.138.117-2.006.614-2.654 1.522-2.206 3.088-1.37 10.015-.863 12.424.101.478-.052.975-.402 1.309-4.612 4.391-1.34 14.43-.593 16.508zm191.36 20.77c.355 0 .704.065 1.047.203 3.08 1.247 7.244 6.228 9.598 9.294.968-4.83 1.999-12.264 1.134-17.212-5.651 1.088-11.462 2.814-13.616 4.29-1.521 1.042-3.123 4.55-4.498 8.6 2.015-2.911 4.253-5.176 6.336-5.176zm210.015-12.23c.536 1.157.947 2.322 1.142 3.435.835 4.763 4.182 20.337 12.176 20.743 4.49.22 14.926-4.236 22.036-12.908 3.485-4.248 7.124-10.791 6.331-19.05-2.528 4.87-7.177 12.62-11.92 14.36-5.888 2.164-13.219 4.854-18.371 1.941-2.378-1.344-6.963-3.936-11.394-8.52zm-376.155 23.75c.433.996.843 1.963 1.23 2.895-.261-4.279-.194-8.348-.086-11.065-.548 2.58-.913 5.356-1.144 8.17zm493.5-73.33c-1.1 1.387-1.856 3.222-1.908 5.649-.122 5.762-.568 9.078-.863 11.271-.258 1.923-.353 2.734-.119 3.512.238.793.923 1.496 1.715 2.31 1.019 1.048 2.173 2.235 2.87 4.044.553 1.433.713 4.004.916 7.26.255 4.099.573 9.198 1.838 12.166 1.026 2.407 3.115 5.598 5.137 8.685 2.458 3.754 4.78 7.3 5.331 9.633.25 1.064.315 2.284.385 3.575.236 4.443.692 7.403 4.722 8.052 2.419.388 5.356-.968 8.198-2.279 3.355-1.55 6.523-3.015 9.289-1.91a5.091 5.091 0 0 1 1.554.983c8.217-6.574 21.666-16.706 27.237-17.351 2.377-.276 4.601-.831 6.95-1.42 2.723-.678 5.488-1.37 8.544-1.617-1.74-2.747-3.174-6.084-3.763-10.026-.055-.211-.2-.796-.36-1.62-2.293 3.157-6.985 6.452-16.56 6.184-16.256-.444-22.736-3.302-27.737-12.23-4.667-8.333-11.888-14.607-15.443-13.421-2.982.992-2.155 7.645-1.63 9.898a1.38 1.38 0 0 1-1.05 1.663l-4.157.922a1.387 1.387 0 0 1-1.684-1.274c-.32-5.858-1.875-15.894-4.68-17.888-.39-.277-.744-.341-1.177-.217a1.39 1.39 0 0 1-1.216-.226 1.38 1.38 0 0 1-.55-1.103c-.002-3.873-.507-10.006-1.79-13.225zm34.229 80.615l-.052.274.584-.723c-.18.153-.359.301-.532.449zM177.916 83.946c.32 0 .635.108.892.314 1.168.942 23.97 19.464 33.42 37.454-.133-3.46-.109-7.364.27-11.27-5.644-9.658-14.287-22.102-24.44-28.818a1.383 1.383 0 0 1-.516-.624c-.223-.538-5.24-12.9.592-19.237-.427-2.377-1.449-9.794 1.506-13.78 1.15-1.55 2.741-2.436 4.728-2.63 5.328-.526 7.902 2.625 9.78 4.924 1.425 1.744 2.287 2.726 3.598 2.619 1.805-.147 3.926-3.421 5.798-6.31 2.28-3.518 4.433-6.843 7.332-7.554 1.424-.349 3.483-4.233 5.137-7.354 2.932-5.532 6.232-11.758 11.235-12.476-.625-.638-1.28-1.117-1.967-1.377-3.174-1.197-24.953-1.568-41.625 7.842-11.103 6.268-17.805 15.507-19.924 27.467.726 1.073 2.105 3.635 1.732 7.19-.144 1.377-.53 2.748-1.154 4.108.468 1.794.456 3.59-.418 5.185-.863 1.572-2.057 1.735-2.694 1.691-.509-.034-1.024-.247-1.537-.6a36.99 36.99 0 0 1-3.432 2.921c-1.831 1.386-2.727 2.917-2.737 4.68-.018 3.063 2.575 6.714 6.32 10.492a28.327 28.327 0 0 1 7.545-4.743c.18-.076.37-.114.56-.114zm-14.541-23.704c-5.404 2.07-27.168 11.763-30.147 34.45-1.746 13.304 1.723 18.14 5.078 22.817 1.437 2.004 2.895 4.037 3.927 6.664 1.891-4.07 4.068-7.565 6.27-10.44 4.397-9.345 10.787-18.616 19.666-22.346-3.967-4.116-6.61-8.146-6.589-11.941.015-2.592 1.27-4.861 3.728-6.746a33.776 33.776 0 0 0 3.101-2.669c-2.046-2.686-3.906-6.924-5.034-9.789zm16.098 35.747c2.37 1.905 4.8 3.77 7.096 5.531 5.379 4.126 10.46 8.023 13.542 11.363 3.807 4.124 9.41 11.563 15.01 19.896a63.508 63.508 0 0 1-.09-.607c-2.683-14.485-21.576-32.777-31.074-41.194-.07.902-.847 2.373-4.484 5.01zm491.62 34.331a2.831 2.831 0 0 0-.221.116c-4.305 2.494-8.096 12.673-10.757 20.785 7.416-5.238 11.735-18.332 10.977-20.9zm-196.59 31.966c.795.782.99 1.74 1.014 1.882a1.2 1.2 0 0 1-.011.472l-2.24 9.94c2.184-.605 5.023-1.984 6.877-5.13.529-.897.634-1.684.332-2.477-.644-1.691-3.103-3.268-5.972-4.687zm179.636 9.835a19.879 19.879 0 0 0-.03 2.46c.084-.273.409-.473.973-.633a16.83 16.83 0 0 1-.943-1.827zm-184.56 2.442c.23.016.47.022.72.012l1.738-10.655c-.05-.158-.133-.332-.218-.38-.077-.043-.281-.046-.626.12l-1.614 10.903zm.334 3.705l-.334 1.23c.325-.206.68-.413 1.056-.62l.173-.58c-.302-.003-.6-.013-.895-.03zm-263.397-30.736c.12 4.955.765 12.26 2.243 20.328.77 4.206 1.667 8.097 2.674 11.638-1.427-11.153-3.214-24.161-4.917-31.966zm382.562-4.915c-.147 0-.275.008-.384.026-.362.057-.983.217-1.087.643-.093.385.152 1.059.787 1.553 1.746 1.354 4.421 2.972 4.448 2.989.508.305.77.91.655 1.506 0 .005-.276 1.661.77 2.743.661.685 2.496 1.55 3.97 2.244 2.031.957 3.306 1.584 3.918 2.374.512.662.95 1.825 1.68 3.821.7 1.913 1.57 4.291 2.513 5.754.86 1.333 5.088 4.565 8.487 7.161 3.44 2.628 6.411 4.899 7.464 6.23.126.162 1.14 1.49 2.475 3.525 4.69-1.096 12.15-2.05 18.131-2.706a89.82 89.82 0 0 0-1.808-3.747c-1.087-2.085-1.311-6.377-1.55-10.92-.148-2.83-.288-5.503-.635-6.937-.69-2.857-3.232-7.165-4.913-10.016-.429-.727-.815-1.382-1.125-1.931-.61-1.082-1.542-2.443-2.443-3.76-1.503-2.193-2.923-4.266-3.4-5.745-.53-1.646-3.153-6.827-6.472-8.068a3.877 3.877 0 0 0-2.832.006l2.259 5.648c.03.075.054.154.072.234.431 2.002 1.117 4.114 1.467 4.52 1.216 1.258 3.207 9.177 1.7 11.127-.498.643-1.18 1.526-9.032-.394-2.625-.64-7.397-1.97-8.643-2.89-1.266-.937-13.238-4.99-16.472-4.99zM462.964 174.58c-.309 0-.606.102-.849.222-1.379.68-2.687 2.784-2.302 5.798.232 1.809 2.081 3.562 4.338 5.045l1.74-9.514c-.82-.306-1.523-.709-2.05-1.201a1.25 1.25 0 0 0-.877-.35zm5.386 12.136c.259.054.517.107.774.158l.455-.913a5.43 5.43 0 0 1-.746-.316l-.483 1.071zm2.458 3.589c.46.102.875.189 1.23.258a3.248 3.248 0 0 1-.33-1.21c-.18-.002-.362-.008-.545-.02l-.355.972zm157.346-6.748c1.284 2.406 2.653 5.257 3.752 8.235 3.447-4.34 8.764-8.333 15.654-6.245l.262.082c-.57-1.67-1.183-3.34-1.783-4.902-6.465.79-13.482 1.818-17.885 2.83zm-413.033-48.85c9.043 13.83 17.73 29.584 18.242 36.633.183 2.514.301 5.291.427 8.23.13 3.025.307 7.187.657 10.993a23.494 23.494 0 0 1 2.043-3.283c5.697-7.594 3.86-20.123-5.782-39.431-8.131-16.284-1.88-26.276 3.401-30.004-1.855-2.994-7.345-11.285-13.838-15.802-.25 4.316-.448 13.85 2.082 19.963.22.482.357.79.403.897.3.689-.015 1.487-.71 1.796a1.411 1.411 0 0 1-1.842-.662c-.13-.269-.254-.543-.374-.824-.619-1.343-2.038-4.33-4.12-8.175-.252 7.466.56 14.372.921 16.992.069.392.126.783.172 1.17a1.38 1.38 0 0 1-1.196 1.524c-.167.023-.33.015-.486-.016zm192.766 8.815c4 6.976 9.062 14.723 10.514 15.438 3.138 1.547 18.102 13.82 20.318 16.975 1.254 1.787 12.504 11.474 24.46 15.857l.423-2.327c-2.982-1.798-5.845-4.279-6.228-7.295-.524-4.141 1.446-7.093 3.632-8.18 1.673-.833 3.503-.608 4.773.585.113.105.27.213.466.316l2.086-11.498c.072-.401.322-.75.682-.953 1.11-.625 2.124-.875 3.024-.75-.965-.49-1.94-.958-2.863-1.4-2.895-1.388-5.63-2.699-7.182-4.148-.68-.635-1.424-1.323-2.21-2.049-4.453-4.113-9.992-9.231-12.633-12.836-1.061-1.449-3.756-5.326-6.877-9.815-5.726-8.24-13.569-19.522-15.657-22.022-3.45-4.13-15.59-15.192-19.7-16.813-.658-.26-1.678-.385-2.946-.4a27.239 27.239 0 0 1 6.153 7.246c6.153 10.467 6.074 25.292-.235 44.069zm59.233 49.402c.252.034.505.066.757.098l.473-1.064a96.736 96.736 0 0 1-.774-.166l-.456 1.132zm3.688 1.238c.41.035.822.066 1.23.09a3.747 3.747 0 0 1-.143-1.23l-1.087 1.14zm5.473-5.111c.292.12.535.352.678.654.16.336.182.729.062 1.084-.003.008-.452 1.471.151 2.233a15.076 15.076 0 0 0 2.599-.395c7.288-1.79 7.691-7.117 8.202-13.86l.045-.584c-.477-.685-1-1.51-1.51-2.318-.51-.807-1.228-1.94-1.666-2.514-1.904.59-7.515 3.91-10.796 6.513l-.78 4.255c.341.02.69-.027.991-.108a1.2 1.2 0 0 1 1.11.268c.31.274.482.69.462 1.12-.067 1.499.15 3.228.452 3.652zm97.785 6.43h4.393c6.326-3.802 10.287-9.402 10.326-9.459.183-.26.434-.444.717-.524.742-.21 2.936-.568 5.462-.941-3.441-.113-6.316-.184-7.008-.114-1.499.155-3.243 1.742-5.088 3.42a73.118 73.118 0 0 1-1.743 1.55c-.506.43-1.122.943-1.791 1.498-1.377 1.141-3.822 3.17-5.268 4.57zm-108.844 1.611l-.083.465.274-.39-.191-.075zm186.288-5.3a24.18 24.18 0 0 1 .476 2.835c.088.903 2.081 2.69 4.44 4.542-1.267-2.625-2.848-5.305-4.916-7.377zm-241-40.571c.258 1.442.231 3.125-.24 5.06L398.28 199.17l61.464-5.954c-11.704-5.139-21.842-14.514-23.185-16.5-1.887-2.791-16.572-15.3-19.211-16.652-1.58-.809-4.321-4.767-6.84-8.842zm61.527 45.564l6.137 2.384c2.525-.417 4.122-.677 4.4-.711 1.501-.26 6.68-4.874 6.673-6.309-.098-.964-.399-2.093-.664-3.09-.09-.34-.176-.658-.25-.955-1.033 2.791-2.874 5.186-6.362 6.715.937.173 1.492.493 1.582 1.348.063.59-.26 1.295-1.12 1.538-1.476.417-4.323.13-6.56-.643l-.026-.002a386.784 386.784 0 0 1-3.81-.275zm-2.63 3.613l-2.287 2.46c2.673-.344 5.161-.664 7.376-.947l-5.089-1.513zm-82.632-52.866l-14.308 55.325 18.803-1.829 11.929-45.966-16.424-7.53zm1.287-4.917c-.458 0-.878.101-1.269.305-1.457.763-2.073 2.698-2.079 2.716l-14.706 57.221.522-.05 14.974-57.005c.103-.393.371-.72.734-.895a1.358 1.358 0 0 1 1.148-.016l18.952 8.553c.614.278.939.967.765 1.625l-11.962 45.38 1.815-.174 12.073-42.71c1.464-5.93-2.608-7.844-3.078-8.042l-16.622-6.684a4.037 4.037 0 0 0-1.267-.224zm-49.734 55.344c.224 1.57-.483 3.027-.988 4.065-.258.53-.55 1.132-.561 1.44-.02.515-.15 1.16-.341 1.852a1.39 1.39 0 0 1 1.182-.924l27.38-2.587c.958-10.993 5.408-36.663 5.681-37.958 1.138-5.396 1.192-41.866-6.41-47.406-2.785-2.028-6.018-7.457-9.158-13.994-4.766.619-12.646 6.509-17.186 10.76a1.388 1.388 0 0 1-2.19-.381c-3.624-7.093-6.755-20.186-7.943-25.536-5.865 4.508-18.316 9.276-27.625 12.614l-1.096.394c-3.893 1.414-14.506 13.509-18.79 26.34-1.905 5.706-.792 10.144.386 14.842 1.406 5.606 2.86 11.401-1.285 18.99a23.25 23.25 0 0 0-1.57 3.582c.831 9.678 1.929 25.814.466 30.199-.193.576-.756.947-1.348.948a1.391 1.391 0 0 1-1.307-1.002c-.225-.78-4.894-17.299-.634-30.473a450.884 450.884 0 0 0-.486-5.299l-14.338.366c-2.777.001-4.763.831-6.108 2.54-3.577 4.541-1.414 13.657-1.392 13.748l4.533 22.626c.495-.052.94-.08 1.329-.08 1.256 0 3.695.121 6.782.276 7.815.392 19.624.984 23.799.15a1.392 1.392 0 0 1 1.645 1.14l.736 4.553c.406-2.215.777-4.303.923-5.329a1.391 1.391 0 0 1 1.103-1.164c.04-.008 3.943-.802 8.554-2.72 1.793-.747 3.208-1.608 4.578-2.441 2.188-1.332 4.255-2.588 7.172-2.862 4.456-.416 14.432-2.006 17.299-3.795 1.249-.78 2.63-.822 3.79-.116 1.262.77 1.989 2.31 1.853 3.928-.182 2.17-1.783 4.013-4.39 5.054-1.256.503-2.442.952-3.549 1.372-3.804 1.441-6.81 2.579-7.832 4.111-.347.52-.707 1.214-1.082 1.983a67.447 67.447 0 0 1 2.915-.524c9.233-1.445 11.813-2.881 12.515-3.474-.17-.283-.434-.566-.816-.869a1.389 1.389 0 0 1 1.431-2.354c1.232.549 2.594 1.756 2.381 3.355l-.008.06zm131.25 6.752l7.164 4.293 12.505-1.894-9.765-4.253c-2.56.476-5.963 1.114-9.903 1.854zm-175.046-5.315c-.444 2.727-1.435 8.025-1.967 10.838.87-.32 1.74-.641 2.606-.963 7.022-2.594 14.225-5.258 21.264-7.008.16-.332.309-.648.442-.931.618-1.311 1.202-2.55 1.83-3.496 1.55-2.34 4.825-3.59 9.357-5.321 1.116-.425 2.313-.883 3.579-1.393 1.629-.655 2.616-1.672 2.71-2.79.056-.674-.242-1.18-.543-1.364-.09-.056-.366-.226-.887.103-3.567 2.244-14.483 3.913-18.915 4.33-2.327.22-4 1.244-6.115 2.54-1.421.872-3.031 1.86-5.063 2.71a56.517 56.517 0 0 1-8.298 2.745zm-78.182 1.002c.178 1.667.318 2.792.4 3.112.532 1.971 5.541 5.835 10.664 7.953-2.037-1.322-4.86-3.817-8.905-8.234a21.41 21.41 0 0 1-2.159-2.83zm13.522 12.342c4.787.76 15.669 1.649 27.044 2.412l-2.693-12.295c-1.3.216-2.78.498-4.299.786-7.169 1.359-12.45 2.246-15.116 1.274-.798-.292-1.452-.88-1.992-1.748-.71 3.236-.876 5.825-.905 6.361.139 1.051-.158 2.42-1.454 3.011a3 3 0 0 1-.585.199zm88.817-6.438c-.89 1.678-1.843 3.059-3.112 3.556-.373.146-.686.627-.819 1.256-.183.872.02 1.806.496 2.27 1.438 1.134 12.402 2.187 14.023 1.6 1.387-.543 2.247-2.342 2.247-3.697 0-.193.044-.383.128-.558.797-1.661 2.078-4.738 2.123-5.918.025-.679.285-1.326.585-1.954-2.15.854-5.56 1.714-10.953 2.54-1.554.24-3.129.545-4.718.905zm101.72 5.769l3.04 3.08 47.359-6.98-7.003-4.084c-13.366 2.45-30.865 5.672-43.397 7.984zm-159.464 3.549c3.66.258 7.324.501 10.802.718 1.509.095 4.148.026 7.277-.131 3.68-1.056 7.389-2.315 11.082-3.634l-1.677-10.364c-5.163.58-15.31.07-22.908-.31-3.028-.152-5.42-.271-6.6-.271-.227 0-.487.014-.776.04l2.8 13.952zm143.483-6.744l11.314 7.505 4.212-.555-3.424-3.1a1.308 1.308 0 0 1-.38-1.362c.152-.487.577-.85 1.096-.935 1.562-.258 24.24-3.997 42.499-6.99l-1.117-.582-54.2 6.019zm-142.595 8.734l.13 1.23c1.574-.022 3.172-.23 4.787-.593-1.44-.18-3.106-.395-4.917-.637zm404.428-9.835c6.216 7.862 8.304 10.045 9 10.641.564.483.784 1.033.74 1.653.852-.602 1.297-1.235 1.322-1.887.107-2.741-5.501-6.816-11.062-10.407zm-295.023 2.346l14.985 11.178 4.683-18.442-18.29 1.82-1.378 5.444zm17.21 12.856l1.145.78 6.23-20.9-1.829.166-5.547 19.954zm-46.902-8.792c1.67 0 3.139.112 4.095.37 1.103.297 2.587 1.34 5.332 3.313 3.604 2.59 8.519 6.122 12.507 7.119l13.904-1.057-18.723-14.295-21.176 1.742a1.36 1.36 0 0 1-1.146-.467 1.325 1.325 0 0 1-.282-1.192l1.115-4.402c-.55 1.883-1.532 4.07-1.899 4.858-.082 1.636-.81 3.489-2.143 4.767 2.435-.457 5.692-.756 8.416-.756zm414.451 3.425c-3.61 1.133-11.465 5.256-17.21 11.065 6.574-3.375 14.123-7.973 17.21-11.065zm-611.74 12.295h35.216c-2.253-5.523-8.513-21.573-10.197-33.273-2.005-13.925-8.88-35.446-12.743-41.965-3.004-5.067-4.41-28.105 1.565-46.301.156-.475.315-.943.478-1.405-2.21.952-5.407 3.606-8.64 7.743-5.686 12.087-8.139 24.463-8.183 24.693a1.4 1.4 0 0 1-1.623 1.108 1.394 1.394 0 0 1-1.155-1.348c-.987 4.868-1.478 10.203-1.237 15.95.23 5.455.402 10.873.568 16.113.695 21.808 1.351 42.43 5.952 58.685zm468.09-1.432l24.412 1.432c-.987-2.998-2.56-7.55-3.42-9.128-.75-1.375-1.516-3.674-2.256-5.898-.636-1.911-1.358-4.077-1.847-4.86-1.181-1.893-3.344-8.82-2.21-12.227.25-.754 1.087-2.452 2.463-4.37-1.218-3.202-3.022-6.375-4.607-8.857l-.251.078c1.375 3.386 4.25 12.461-1.533 18.249-4.331 4.336-11.62 6.626-21.086 6.626h-.17l-.205-.001c-.883 0-3.285 1.137-4.875 1.888-1.87.885-3.06 1.433-3.906 1.554-1.415.206-4.707-.446-6.203-2.464-.18-.244-.329-.5-.444-.765-2.338 1.6-4.823 2.84-6.292 2.21-1.31-.562-2.31-1.887-2.896-2.85-.816.175-1.91.262-2.9-.15a3.349 3.349 0 0 1-.77-.446c-.741.501-1.75.976-2.815.876-.712-.063-1.727-.4-2.518-1.645-1.406-2.21-.204-6.51 1.31-10.879h-5.668a1.381 1.381 0 0 1-1.382-1.382c0-.077-.008-7.767-.671-11.752-.28-1.684-2.15-6.032-3.956-10.235-2.825-6.576-4.748-11.195-5.01-13.65-1.26 1-3.45 3.59-4.285 5.541-1.166 2.723-6.403 7.913-11.22 12.563-.642.62-1.164 1.125-1.501 1.462-2.114 2.116-7.73 6.393-7.967 6.574a1.382 1.382 0 0 1-1.96-.296c-3.09-4.327-8.63-9.97-11.274-8.958-2.721 1.037-2.874 1.566-2.995 1.99-.116.402-.292 1.01-.893 1.612-.72.72-1.823 1.164-2.889 1.592-.829.334-1.966.791-2.233 1.193-.3.45-.382 1.375-.454 2.191-.088.992-.179 2.016-.662 2.82-.469.784-1.227 1.32-1.96 1.837-.603.425-1.225.865-1.441 1.297-.246.492-.271 1.427-.295 2.253-.024.874-.049 1.777-.302 2.572-.038.666.814 3.274 2.381 5.126.606.716 1.546 1.582 2.586 1.643 2.233.129 2.942-.32 3.074-.424a1.383 1.383 0 0 1 1.88-.562c.014.007 2.136 1.118 4.551.558.525-.121.772-.299.829-.424.098-.221-.056-.678-.119-.793a1.384 1.384 0 0 1 .32-1.717 1.379 1.379 0 0 1 1.746-.031c.023.018 2.734 2.092 5.466 1.364.659-.176 1.101-.444 1.246-.752.162-.346.01-.838-.06-.993a1.383 1.383 0 0 1 .64-1.852 1.382 1.382 0 0 1 1.745.472l.002.002a33.584 33.584 0 0 0 .007.011l.002.004.005.007.001.002c.02.031.04.063.056.096l.006.01.003.006a.02.02 0 0 0 .003.005l.006.013.021.043c.093.188 1.19 2.327 2.942 1.788.99-.305 1.05-3.712.439-6.438a1.382 1.382 0 0 1 1.348-1.686h26.239a1.382 1.382 0 1 1 .535 2.657l-45.382 19.099 111.44 6.122a1.382 1.382 0 0 1 .558 2.609l-12.478 6.438zm274.487-25.444c3.463 0 6.546.421 8.798 1.493 4.793 2.278 5.715 10.641 2.815 25.57a52.42 52.42 0 0 1-.204 1.042l6.264-15.025c2.14-5.88 1.929-10.285-.64-13.036-7.088-7.579-29.371-1.8-29.596-1.74l-15.921 3.793c-.127 1.213-.232 2.261-.324 3.094 5.131-1.517 18.603-5.191 28.808-5.191zm-460.28 13.819l18.075 16.745 54.452-10.841-23.467-12.518-49.06 6.614zM334.77 232.91c.776 0 1.454.041 2.014.14.888.156 2.2.435 3.718.758 4.322.92 13.32 2.834 15.474 2.066.276-.097.424-.186.497-.24-.1-.262-.508-.755-.892-1.06a1.382 1.382 0 0 1-.355-1.742 1.387 1.387 0 0 1 1.655-.654c2.774.919 6.379 1.62 7.329 1.2.899-.397.405-1.978.4-1.995a1.387 1.387 0 0 1 1.211-1.807l18.939-1.482-.735-2.779a1.375 1.375 0 0 1 .002-.708l.414-1.547-17.232-12.18a1.381 1.381 0 0 1-.538-1.482l1.418-5.311-.51.047-.536 2.05a1.387 1.387 0 0 1-1.23 1.029 1.385 1.385 0 0 1-1.383-.816c-.131-.294-.176-.972-.153-1.952l-25.932 2.444-.448 1.786 20.282-1.683c.345-.03.69.072.964.285l22.446 17.284c.455.35.646.941.481 1.49a1.387 1.387 0 0 1-1.224.982l-18.049 1.383c-.141.01-.284 0-.422-.033-4.665-1.084-10.065-4.998-14.007-7.855-1.812-1.313-3.865-2.801-4.554-2.988-2.17-.59-9.065-.21-12.72.699-2.799.695-9.852.332-13.944.04 2.424 4.987 1.565 12.55 1.084 15.575 2.184.288 6.248-.114 9.621-.446 2.66-.261 5.063-.498 6.915-.498zm330.262-1.776c-.987 1.756-1.758 3.554-2.025 5.258-1.11 7.064.134 14.618 1.242 15.643.289-.929.201-3.88.13-6.288-.128-4.281-.287-9.668.653-14.613zm-205.287 21.642l89.575 5.406 53.02-26.988-86.023-4.978-56.572 26.56zm223.734-37.022c-1.435 1.79-12.408 24.59-9.286 38.714.984 4.45 3.214 7.418 6.818 9.07 12.778 5.854 33.89-22.138 46.5-38.865 5.098-6.762 8.78-11.647 11.032-13.374 2.163-1.66 5.215-2.847 8.75-4.222 10.102-3.928 23.93-9.309 31.166-30.747 5.932-17.579.236-31.58-3.684-38.362-4.819-8.33-11.322-13.593-14.999-14.313a1.393 1.393 0 0 1-1.121-1.349 1.393 1.393 0 0 1 1.08-1.385c.16-.036 16.064-3.668 33.639-4.26 23.954-.794 39.447 4.128 46.069 14.658 10.153 16.13 10.375 51.011 9.261 73.692l6.406-1.555c.961-9.894 2.389-27.108 1.289-32.451-1.734-8.47-13.676-44.014-18.947-47.821-.683-.496-1.532-1.12-2.507-1.839-6.95-5.126-21.412-15.795-28.438-16.774-7.987-1.112-49.753 11.49-63.681 22.983a1.393 1.393 0 0 1-1.492.179c-5.054 6.623-10.555 14.381-12.251 18.806-3.938 10.272-15.989 31.194-16.11 31.404-1.153 1.999-4.278 5.383-7.895 9.304-1.117 1.21-2.3 2.492-3.487 3.802-.173 2.422-.639 4.642-1.577 6.236a1.392 1.392 0 0 1-2.515-.254c-.01-.028-.126-.355-.349-.912-2.1 2.512-3.928 4.93-5.057 6.958-4.932 8.857-7.198 11.446-8.614 12.677zm-50.613-17.364c1.366 2.776 12.553 25.938 11.873 38.662-.693 12.98 17.446 34.279 21.721 34.636 2.973.249 11.364-2.177 18.843-5.169-1.946.11-3.816-.2-5.6-1.017-4.902-2.246-7.836-6.573-8.72-12.86-2.178-15.487 8.822-38.126 10.483-39.554 1.813-1.56 4.372-5.361 8.052-11.966 1.401-2.515 3.671-5.44 6.245-8.447-3.346-7.061-11.964-21.386-25.94-19.075-7.42 1.226-10.922 1.888-12.573 2.238a1.39 1.39 0 0 1-1.024.571c-.663.052-2.203.164-2.422-1.18.063 2.141.214 3.537.22 3.59a1.394 1.394 0 0 1-1.267 1.55c-1.506.129-3.159.281-4.891.452a98.277 98.277 0 0 1 2.41 6.016c6.021 3.357 9.315 10.058 11.436 14.593l.628.402c7.81 4.998 15.887 10.166 15.7 15.104-.072 1.895-1.285 3.489-3.604 4.734-7.91 4.249-7.512 15.856-7.249 23.537.169 4.935.27 7.915-1.613 8.859-.974.487-2.033.395-2.904-.261-3.16-2.376-3.636-12.392-2.575-18.243.847-4.673 4.958-9.432 7.96-12.908 1.184-1.37 2.622-3.036 3.035-3.846-1.556-1.535-4.77-5.473-9.566-11.726-.62-.807-1.232-2.1-1.995-3.735-6.295-4.05-9.856-6.582-10.133-9.076-.165-1.484-.68-3.396-1.377-5.454a13.436 13.436 0 0 0-2.236-.801c-6.27-1.643-11.075 2.165-13.941 5.692.511 1.579.878 3.159 1.024 4.682zm93.115 81.922h39.487l11.765-38.976c.202-.76 5.573-19.596 30.564-28.102.042-.014.083-.026.125-.035l37.333-9.049c1.114-22.308 1.03-57.243-8.731-72.734-12.315-19.55-58.073-12.702-72.37-10.016 3.91 2.407 8.606 7.007 12.516 13.763 4.153 7.176 10.185 21.988 3.91 40.57-7.647 22.624-22.765 28.497-32.771 32.383-3.333 1.294-6.21 2.413-8.058 3.828-1.948 1.492-5.908 6.737-10.493 12.81-3.768 4.99-8.054 10.668-12.597 16.165 5.567-4.92 9.943-8.262 12.256-8.684.973-.176 2.487-.712 4.325-1.493 6.428-9.42 19.62-16.316 24.044-16.833 1.267-.147 2.143.164 2.595.928.314.513.494 1.38-.354 2.604-3.117 4.494-16.19 11.926-24.447 15.527-.866 1.384-1.566 2.826-2.037 4.315-2.073 6.541-2.686 13.994-3.278 21.202-.657 8.006-1.284 15.613-3.784 21.827zM868.735 284c-.486 0-.937-.255-1.187-.672a1.404 1.404 0 0 1-.042-1.364c20.834-39.525 18.98-53.944 16.014-59.022-1.958-3.36-5.055-3.945-6.722-3.994-7.104-.231-30.515 7.76-30.751 7.84a1.388 1.388 0 0 1-1.826-1.47c.02-.215.777-7.058 1.347-17.08l-36.404 8.805c-23.508 8.014-28.626 25.934-28.675 26.115l-12.049 39.855a1.383 1.383 0 0 1-1.326.987h-42.595a1.389 1.389 0 0 1-1.243-2.01c3.021-6.043 3.69-14.155 4.397-22.741.603-7.336 1.228-14.92 3.392-21.738.205-.644.448-1.282.727-1.912-.668.218-1.241.375-1.7.458-3.438.625-16.816 13.323-24.003 20.144-2.665 2.53-4.969 4.716-6.351 5.926-5.519 4.83-26.766 12.665-32.975 12.145-3.746-.312-10.144-7.176-14.824-13.839-2.969-4.226-9.823-14.975-9.366-23.502.667-12.453-11.538-37.024-11.662-37.27a1.405 1.405 0 0 1-.142-.513 15.85 15.85 0 0 0-.335-2.179c-.484.83-.787 1.484-.898 1.815-.738 2.217.867 8.212 1.944 9.937.666 1.066 1.347 3.11 2.136 5.477.707 2.12 1.437 4.31 2.072 5.474 1.438 2.635 4.157 11.226 4.272 11.59a1.39 1.39 0 0 1-1.406 1.806l-31.262-1.832-57.143 29.46a1.334 1.334 0 0 1-.721.151l-94.68-5.787a1.389 1.389 0 0 1-.512-2.64l61.346-29.17c.211-.1.445-.149.678-.132l90.435 5.3 12.18-6.279-112.999-6.202a1.389 1.389 0 0 1-.462-2.668l44.852-18.86H532.42c.362 2.622.482 7.08-2.64 8.041-1.592.49-2.941.11-3.995-.594-.456.66-1.28 1.37-2.768 1.767-2.107.56-4.105.083-5.568-.533a3.228 3.228 0 0 1-.07.17c-.311.693-1.04 1.602-2.742 1.994-2.307.533-4.37.026-5.536-.397-.811.56-2.254 1.046-4.811.893-1.951-.114-3.808-1.395-5.37-3.701-1.431-2.115-2.615-5.195-2.117-6.69.142-.424.162-1.146.182-1.845.03-1.118.066-2.384.588-3.43.53-1.059 1.487-1.734 2.332-2.33.479-.337 1.021-.72 1.192-1.005.156-.26.228-1.064.28-1.65.102-1.151.218-2.456.913-3.498.745-1.12 2.157-1.686 3.521-2.234.775-.312 1.654-.665 1.976-.987.09-.09.108-.13.194-.426.438-1.519 1.284-2.527 4.693-3.826 4.855-1.846 11.204 5.535 13.73 8.827 1.768-1.372 5.167-4.052 6.616-5.502.347-.347.884-.865 1.546-1.504 2.876-2.774 9.61-9.27 10.66-11.719.935-2.181 5.113-8.181 7.907-7.615.512.105 1.703.57 1.703 2.606 0 1.894 2.686 8.137 4.843 13.154 2.054 4.776 3.83 8.901 4.166 10.926.534 3.203.668 8.4.702 10.877h5.27c.505-1.11 2.297-2.613 7.568-6.463.691-.506 1.328-.971 1.85-1.361.596-.448 1.18-.917 1.757-1.378 2.27-1.82 4.416-3.537 6.82-3.757 1.128-.101 5.38.02 12.222.23 5.178.16 11.827.365 15.126.34 2.825-.257 2.972-.1 3.333.286.344.368.463.895.309 1.376-.168.524-.568.852-1.191.977-.354.07-1.05.11-2.056.128-5.588.54-21.476 2.402-24.774 3.01-1.174 1.378-5.373 5.971-11.696 9.236a1.392 1.392 0 0 1-.637.154h-6.635c-1.878 5.31-2.523 8.487-1.916 9.44.229.36.385.374.436.379.507.047 1.403-.642 1.77-1.038a1.39 1.39 0 0 1 2.31.426c.1.248.221.33.339.378.56.237 1.587-.044 1.997-.216.69-.29 1.495.022 1.806.705.298.65 1.161 2.082 1.979 2.501.828-.039 3.515-1.633 5.848-3.478a1.39 1.39 0 0 1 2.12 1.677c-.316.678-.164 1.03.025 1.286.735.99 2.913 1.477 3.613 1.381.481-.069 1.953-.764 3.135-1.323 2.68-1.267 4.687-2.164 6.09-2.164h.369c8.649 0 15.48-2.072 19.251-5.843 5.69-5.69.488-16.348.434-16.455a1.39 1.39 0 0 1 .472-1.776c.298-.199.73-.395 1.273-.588a55.284 55.284 0 0 0-1.82-2.485c-.832-1.017-3.985-3.345-7.033-5.597-4.894-3.614-8.181-6.103-9.24-7.692-1.128-1.692-2.07-4.18-2.826-6.181-.445-1.179-1-2.645-1.27-2.982-.304-.325-1.891-1.049-2.942-1.527-1.869-.852-3.802-1.732-4.827-2.758-1.371-1.371-1.622-3.087-1.62-4.162-.974-.59-2.703-1.667-4.018-2.653-1.474-1.106-2.206-2.88-1.822-4.415.362-1.441 1.59-2.426 3.37-2.699 3.327-.511 17.146 3.958 19.076 5.336 1.327.907 11.365 3.461 14.053 3.461.103-1.642-.922-6.124-1.532-6.95-1.023-1.02-1.833-4.174-2.159-5.61l-2.73-6.603a1.389 1.389 0 0 1 .55-1.71c2.037-1.266 4.222-1.534 6.317-.775 4.746 1.714 7.701 8.023 8.233 9.617.352 1.056 1.794 3.092 3.067 4.889.946 1.335 1.924 2.716 2.603 3.88.306.524.686 1.147 1.108 1.84 1.895 3.105 4.49 7.359 5.29 10.56.415 1.66.563 4.402.721 7.303.193 3.571.435 8.015 1.238 9.507.434.808 1.3 2.52 2.304 4.678 1.774-.176 3.312-.319 4.458-.42-.269-3.726-.59-13.866 2.999-21.187.06-.216.123-.431.189-.647l.473-1.545c3.029-9.902 7.177-23.462 13.102-27.018 1.868-1.12 3.216-.484 3.857.485 2.612 3.953-3.737 19.69-11.355 25.213-1.534 1.112-2.722 2.656-3.64 4.44-1.67 6.23-.468 12.729.245 15.612l.539-.108c2.396-.48 6.356-1.175 11.77-2.067 8.583-1.415 16.607 2.43 23.202 11.122 2.21 2.913 3.902 5.89 5.1 8.295.313-.352.63-.703.946-1.054.166-4.996-.84-11.153-1.444-13.919a1.407 1.407 0 0 1-.024-.442c.225-2.144-.613-5.033-1.352-7.584-.68-2.34-1.32-4.55-1.198-6.258.244-3.425-.324-21.717-2.157-25.18-1.679-3.17-2.089-9.484-2.485-15.59-.138-2.13-.269-4.14-.448-5.993-.624-6.45-7.01-12.82-9.737-15.54l-.28-.28c-2.552-2.552-10.558-4.64-15.34-5.888-5.406-1.41-23.249-9.837-25.504-11.591-.954-.742-1.883-2.245-2.673-3.837 1.977 10.415-2.388 18.578-6.556 23.704-7.112 8.749-18.304 14.293-24.25 13.99-9.744-.498-13.543-16.35-14.723-23.14-.644-3.702-4.376-8.445-6.136-10.516-2.658 1.941-7.537 2.823-12.656 3.748-3.415.617-6.946 1.256-8.728 2.146-4.416 2.205-17.52 18.357-18.945 21.21-1.043 2.086-3.66 4.297-6.192 6.437-1.245 1.052-2.421 2.046-3.328 2.952-1.948 1.949-3.952 6.413-5.278 9.367a73.874 73.874 0 0 1-1.175 2.542c-1.491 2.983-8.811 10.403-12.235 11.984-1.7.784-3.138 3.523-4.408 5.94-.59 1.124-1.148 2.186-1.73 3.06-1.1 1.65-1.932 2.363-4.152 4.268-1.92 1.646-4.82 4.134-9.944 8.939-4.094 3.838-4.885 8.804-5.326 13.75 1.798 2.385 1.035 8.03.862 8.725-.01.238.256 1.247.45 1.984.291 1.105.622 2.357.742 3.558.317 3.168-6.168 8.637-8.777 9.328l10.45 4.103a1.389 1.389 0 0 1-.32 2.669l-14.08 1.921 23.348 12.611a1.39 1.39 0 0 1-.386 2.584l-58.567 11.807a1.39 1.39 0 0 1-1.224-.349l-20.124-18.878-6.98.953a1.382 1.382 0 0 1-.975-.231l-14.815-10.186a1.391 1.391 0 0 1 .629-2.526l58.335-6.713a1.39 1.39 0 0 1 .819.157l3.2 1.73-.374-2.626a1.398 1.398 0 0 1 .007-.44l.313-1.746-.765-.3-64.007 6.057-6.915 24.164a1.389 1.389 0 0 1-2.14.75l-1.872-1.329-.053.199 1.064 4.042a1.388 1.388 0 0 1-1.234 1.739l-19.117 1.503c.015 1.364-.459 2.937-2.188 3.706-1.439.64-3.95.299-6.068-.188 0 .133-.011.269-.034.405-.121.744-.623 1.76-2.329 2.368-2.681.959-9.283-.328-16.995-1.976-1.492-.318-2.782-.594-3.621-.742-1.525-.272-4.905.065-8.176.389-5.021.496-9.763.965-12.042-.019a1.388 1.388 0 0 1-.809-1.556c.727-3.527 1.8-13.458-1.914-17.003a1.388 1.388 0 0 1-.305-1.579 1.405 1.405 0 0 1 1.39-.809l.224.02c-1.079-.33-1.904-.705-2.318-1.12-1.15-1.15-1.648-3.083-1.27-4.927.333-1.617 1.257-2.838 2.537-3.35a.963.963 0 0 0 .252-.161c-5.873 1.635-11.874 3.84-17.743 5.996a644.347 644.347 0 0 1-6.608 2.402 899.173 899.173 0 0 0 13.276-1.124 1.39 1.39 0 0 1 .313.006c5.178.69 11.307 10.892 11.716 17.551.248 4.032-1.437 6.728-4.743 7.59-6.399 1.67-21.955 2.364-34.454 2.92-5.618.252-10.47.468-12.999.721-5.753.576-68.093 3.343-71.886 1.921-2.981-1.118-4.917-5.198-5.683-7.119H93.442c-.768 0-93.442-.324-93.442-1.091 0-.767 92.674-1.687 93.442-1.687h93.278a1.39 1.39 0 0 1 1.318.949c.697 2.08 2.501 5.644 4.374 6.346 3.368.966 61.308-1.15 70.635-2.083 2.605-.26 7.492-.479 13.151-.731 11.717-.523 27.762-1.239 33.876-2.834.721-.188 2.917-.76 2.672-4.731-.37-6.023-5.937-14.304-9.174-14.946-1.807.168-14.825 1.366-24.11 1.841-6.48 1.848-12.916 3.069-19.107 2.953a1.389 1.389 0 0 1-1.334-1.116l-.514-2.57c-11.446-.833-26.307-2.08-30.132-3.174-5.73-1.636-13.165-6.257-14.166-9.761-.226-.793-.572-3.973-1.192-10.21-3.18-7.723-5.155-17.708-6.347-25.979-1.816-12.605-2.42-26.456-1.265-29.06.465-1.05 1.338-1.098 1.586-1.095 1.202.042 1.658 1.295 1.852 1.83 2.233 6.14 4.771 31.986 6.45 49.089l.444 4.501c1.475 3.51 3.09 6.203 4.807 7.974 6.737 6.94 9.085 7.643 9.63 7.699a1.86 1.86 0 0 0 .01-.522 1.672 1.672 0 0 1-.014-.25c.012-.351.223-6.037 2.105-12.117-.698-3.976-.995-9.495-1.283-16.345-.124-2.947-.24-5.73-.419-8.227-.777-10.88-23.307-46.104-33.277-57.223-2.86-3.191-7.745-7.05-12.917-11.135-2.56-2.022-5.141-4.06-7.594-6.099a86.933 86.933 0 0 1-2.937 1.862c-3.422 2.082-7.4 4.223-10.4 5.634a60.748 60.748 0 0 0-1.355 3.747c-5.934 18.212-4.126 40.04-1.798 43.994 3.99 6.784 10.905 28.365 12.988 42.946 1.954 13.677 10.626 34.28 10.713 34.487a1.387 1.387 0 0 1-1.28 1.93h-38.032a1.388 1.388 0 0 1-1.332-.998c-4.92-16.732-5.59-37.909-6.298-60.329-.166-5.229-.337-10.636-.563-16.072-.433-10.392 1.378-19.446 4.218-26.936-.77-3.927-2.585-6.474-4.559-9.245-3.548-4.978-7.569-10.621-5.654-25.312 3.675-28.178 33.488-37.884 33.788-37.978a1.39 1.39 0 0 1 1.72.84c1.526 4.1 3.42 7.975 4.886 10.19.663-.829 1.22-1.657 1.67-2.485-1.202-3.246-4.217-6.819-5.637-8.24a1.403 1.403 0 0 1-.204-.258c-4.942-8.088.184-27.711 10.158-38.882C188.898 3.128 218.64 5.176 224.482 5.725c9.655.905 18.809 7.91 18.596 12.476a3.056 3.056 0 0 1-.77 1.884c1.245 2.113 2.31 4.54 3.317 6.828.955 2.173 1.856 4.226 2.688 5.428 3.255 4.701 2.501 8.482 1.773 12.136-.24 1.206-.49 2.454-.587 3.73-.293 3.801 5.347 11.437 7.544 14.059.328.392.415.933.226 1.408-1.656 4.141-4.172 4.308-6.01 4.43-1.257.083-1.889.159-2.497.97-.635.848-.48 3.597-.342 6.022.28 4.954.628 11.12-3.603 14.385-3.858 2.978-15.307 1.386-17.688 1.015-3.749 1.102-6.316 3.96-8.045 7.708.256-.01.517.048.747.178 9.438 5.335 17.025 18.779 17.344 19.348a1.393 1.393 0 0 1-.538 1.892c-.536.302-13.098 7.695-3.432 27.4 10.067 20.522 11.807 34.081 5.476 42.673-1.573 2.135-2.718 4.697-3.55 7.245.429 2.312.992 3.952 1.747 4.254 2.094.838 8.692-.534 13.511-1.536 1.554-.322 3.013-.626 4.316-.864l-4.492-22.461c-.091-.37-2.491-10.46 1.914-16.072 1.879-2.393 4.656-3.606 8.256-3.606l15.577-.4c.725-.033 1.343.525 1.418 1.247.032.31.087.856.159 1.595 3.176-6.305 1.958-11.172.67-16.314-1.222-4.88-2.486-9.928-.327-16.407 4.47-13.408 15.493-26.283 20.46-28.09l1.105-.398c15.759-5.66 25.305-10.225 28.372-13.573a1.39 1.39 0 0 1 2.385.66c.035.175 3.391 16.49 7.41 25.544 3.15-2.774 10.52-8.79 16.462-10.046a58.76 58.76 0 0 1-.139-.304c-5.807-5.254-17.165-15.887-18.785-20.097a1.391 1.391 0 0 1-.034-.898c.023-.077 2.25-7.536 2.716-12.175-1.232-2.754-8.917-20.393-8.696-31.658.276-14.099 4.394-23.924 11.038-26.408 1.743-1.715 11.945-10.562 32.767-6.176 12.062 2.539 16.175 6.686 19.804 10.344 3.156 3.183 5.882 5.93 13.52 7.479.616.125 1.072.647 1.11 1.274.188 2.997-1.297 8.802-8.212 9.551.217.988.45 2.016.669 2.972 1.87 8.205 2.66 12.25 1.844 13.882l-.251.5c-1.075 2.135-3.075 6.11-3.075 8.37 0 1.556-.721 3.775-1.486 6.124-.714 2.195-1.523 4.683-1.523 6.146 0 2.334-1.716 19.223-8.639 21.242-6.581 1.919-20.394-3.57-28.043-7.011-8-3.6-11.56-13.045-12.661-16.663-.679-.01-1.443-.217-2.3-.625.143.203.29.405.439.605.09.121.16.257.207.401 2.203 6.757 6.97 20.198 11.893 31.16.954.86 1.876 1.68 2.745 2.442a1.389 1.389 0 0 1-.491 2.365c2.726 5.545 5.389 9.898 7.575 11.494 9.319 6.8 8.503 45.42 7.485 50.255-.567 2.694-2.333 13.346-3.78 23.166l11.494-44.175c.054-.18.974-3.127 3.506-4.434 1.424-.735 3.026-.816 4.759-.237a.72.72 0 0 1 .074.027l16.904 6.713a7.37 7.37 0 0 1 1.723 1.007 230.81 230.81 0 0 1-1.833-3.203 1.388 1.388 0 0 1-.104-1.123c6.198-18.425 6.42-32.809.658-42.752a24.405 24.405 0 0 0-8.077-8.44c-.855.095-1.743.212-2.653.35 1.443 7.854-1.43 19.446-1.852 21.075a1.388 1.388 0 0 1-2.465.473c-1.866-2.55-7.39-9.431-10.494-10.639-1.519-.59-6.283 6.041-9.81 13.643a1.389 1.389 0 0 1-2.619-.874c.391-1.835 3.965-18.014 8.928-21.28 2.364-1.558 8.57-3.429 14.784-4.605a5.16 5.16 0 0 0-.902-1.34 1.39 1.39 0 0 1 1.273-2.322c.218.043 3.022.629 6.511 2.676 3.272-.29 6.06-.22 7.624.406 5.032 2.013 17.41 13.78 20.696 17.77 2.154 2.614 9.67 13.587 15.712 22.405 3.091 4.513 5.76 8.409 6.796 9.842 2.468 3.417 7.867 8.478 12.205 12.545.785.736 1.529 1.433 2.208 2.076 1.231 1.167 3.763 2.399 6.444 3.702 4.987 2.426 10.143 4.934 11.427 8.79.505 1.52.35 3.088-.461 4.664-.182.352-.372.687-.57 1.006 2.868-1.303 3.517-1.11 4.103-.67.632.473 1.397 1.552 2.559 3.257.62-4.35 1.96-8.778 5.844-12.42 5.17-4.847 8.098-7.358 10.035-9.02 2.12-1.82 2.76-2.368 3.648-3.7.503-.755 1.028-1.754 1.584-2.812 1.475-2.808 3.148-5.991 5.703-7.17 2.764-1.277 9.71-8.296 10.914-10.704a70.69 70.69 0 0 0 1.126-2.438c1.493-3.327 3.538-7.884 5.848-10.193.989-.99 2.208-2.02 3.5-3.11 2.208-1.867 4.712-3.983 5.499-5.557 1.423-2.848 14.974-19.85 20.189-22.454 2.138-1.068 5.702-1.712 9.474-2.394 4.757-.859 10.675-1.929 12.144-3.85a1.387 1.387 0 0 1 1.9-.294 39.693 39.693 0 0 1-1.729-4.034c-2.338.117-5.82-.884-7.958-5.34-3.156-6.574-5.775-13.17-3.589-16.89.608-1.033 1.886-2.3 4.525-2.459.484-.028.943.195 1.218.584-.722-2.45-.99-5.014.027-6.9.186-.345.438-.711.779-1.058a89.845 89.845 0 0 1-3.913.422 1.397 1.397 0 0 1-1.477-1.136c-1.746-9.602-1.346-27.07 20.941-36.173 13.202-5.394 22.526-2.935 28.023.079 5.03 2.758 7.817 6.416 8.65 7.633 13.105 5.483 9.086 24.963 7.29 31.57.04.8.074 1.568.1 2.268.26-.086.538-.137.833-.14h.033c1.244 0 2.308.817 3.161 2.43 1.823 3.444.827 12.201-1.87 16.439-1.016 1.595-2.104 2.306-3.05 2.583l-.66 3.295c.94 2.72 2.66 6.664 3.816 7.563 1.843 1.434 19.127 9.695 24.499 11.096 6.84 1.785 13.757 3.765 16.605 6.612l.277.277c2.938 2.93 9.82 9.795 10.54 17.24.183 1.896.316 3.928.455 6.08.36 5.542.768 11.826 2.168 14.47 2.395 4.526 2.658 24.076 2.473 26.677-.087 1.214.487 3.192 1.095 5.288.788 2.715 1.678 5.783 1.468 8.42.285 1.342 1.258 6.237 1.457 11.267l1.395-1.507c3.35-3.618 6.513-7.035 7.507-8.752.12-.207 12.029-20.815 15.878-30.824 2.046-5.32 8.98-14.782 14.57-21.94l1.104-5.832c.059-.311.223-.594.466-.8.578-.49 2.149-1.816 4.333-3.597a2.246 2.246 0 0 0-.378-.195c-1.661-.667-4.307.562-7.11 1.86-3.227 1.492-6.562 3.037-9.826 2.51-6.553-1.057-6.862-6.85-7.066-10.683-.061-1.17-.12-2.275-.316-3.103-.44-1.868-2.739-5.388-4.963-8.793-2.092-3.202-4.255-6.513-5.38-9.157-1.453-3.42-1.774-8.581-2.058-13.135-.173-2.791-.336-5.428-.737-6.469-.496-1.287-1.361-2.179-2.277-3.123-.96-.99-1.953-2.012-2.387-3.458-.416-1.387-.25-2.632.028-4.695.286-2.142.72-5.38.84-11.013.069-3.245 1.143-5.723 2.72-7.592-3.906.465-10.336-.376-12.934-3.744-.912-1.182-1.75-3.194-.56-6.065 2.963-7.166 25.932-28.71 57.638-26.319 27.38 2.059 31.06 11.572 31.54 14.493 3.097 2.27 16.195 14.157 8.347 48.34-.125.594-.215.929-.222.96a1.39 1.39 0 0 1-2.694-.687c.083-.345.166-.69.243-1.03 1.125-5.288 5.222-30.498-15.383-43.805-4.93 2.61-32.643 16.71-54.58 15.526-.558.03-4.266.3-7.292 2.348 1.925 3.784 2.334 10.532 2.416 13.786.63.095 1.238.347 1.804.75 4.074 2.903 5.379 14.06 5.74 18.449l1.272-.284c-.515-3.121-1.109-10.217 3.728-11.83 6.13-2.042 14.67 7.404 18.782 14.763 3.99 7.14 8.61 10.403 25.45 10.863 15.375.441 15.93-8.992 15.93-9.088a1.399 1.399 0 0 1 1.417-1.33 1.39 1.39 0 0 1 1.361 1.39c0 3.239.869 6.554.882 6.588.014.051.021.104.028.157.618 4.24 2.368 7.73 4.368 10.47a27.93 27.93 0 0 1 4.973.642c.444.098.812.407.986.826l2.778 6.714c.229.545.083 1.173-.354 1.565a1.392 1.392 0 0 1-1.598.182c-.291-.16-4.458-2.507-8.201-7.168-3.487.054-6.584.83-9.806 1.636-2.334.586-4.757 1.192-7.32 1.49-4.583.532-17.257 9.96-26.001 16.947.098.207.19.423.28.648a1.392 1.392 0 0 1-.23 1.404c-.062.074-2.198 2.617-5.126 6.286 17.486-10.935 53.23-21.197 60.967-20.132 7.702 1.07 21.966 11.556 29.626 17.19.965.708 1.799 1.323 2.48 1.81 6.631 4.778 18.639 42.663 19.993 49.232 1.139 5.529-.174 22.033-1.139 32.126l14.73-3.564c.937-.251 23.813-6.26 31.931 2.553 3.292 3.575 3.695 8.937 1.188 15.934l-13.917 33.858a1.386 1.386 0 0 1-1.757.776 1.392 1.392 0 0 1-.848-1.732c4.862-15.02 10.237-39.975 3.959-43-9.278-4.478-36.807 4.386-37.078 4.476a1.403 1.403 0 0 1-1.312-.245 1.394 1.394 0 0 1-.5-1.233c.007-.07.187-1.67.444-4.202l-6.25 1.512c-.41 7.252-.93 12.958-1.23 15.927 5.91-1.95 22.745-7.305 29.349-7.305.111 0 .215.002.326.005 2.244.066 6.403.852 9.042 5.372 5.57 9.547.417 30.16-14.896 59.679h63.453c.764 0 5.52.62 5.52 1.386 0 .767-4.756 1.392-5.52 1.392h-65.745z"/>
</svg>
